# xmcd CD database file
#
# Track frame offsets:
#	150
#	12355
#	25937
#	38587
#	58807
#	85815
#	99145
#	116465
#	140167
#	164610
#	182347
#	204780
#	234405
#	265190
#	289265
#	301867
#
# Disc length: 4377 seconds
#
# Revision: 1
# Processed by: cddbd v1.5.2PL0 Copyright (c) Steve Scherf et al.
# Submitted via: CDex 1.51
#
DISCID=cc111710
DTITLE=Bob Dylan - Bob Dylan Live 1961-2000 - Thirty-Nine Years Of Great Concert Performances
DYEAR=1900
DGENRE=Rock
TTITLE0=Somebody Touched Me
TTITLE1=Wade In The Water
TTITLE2=Handsome Molly
TTITLE3=To Ramona
TTITLE4=I Don't Believe You
TTITLE5=Grand Coulee Dam
TTITLE6=Knockin' On Heaven's Door
TTITLE7=It Ain't Me, Babe
TTITLE8=Shelter From The Storm
TTITLE9=Dead Man, Dead Man
TTITLE10=Slow Train
TTITLE11=Dignity
TTITLE12=Cold Irons Bound
TTITLE13=Born In Time
TTITLE14=Country Pie
TTITLE15=Things Have Changed
EXTD=
EXTT0=
EXTT1=
EXTT2=
EXTT3=
EXTT4=
EXTT5=
EXTT6=
EXTT7=
EXTT8=
EXTT9=
EXTT10=
EXTT11=
EXTT12=
EXTT13=
EXTT14=
EXTT15=
PLAYORDER=
